v 5.1049999999999995 0 8.7
v 5.1049999999999995 0 2.45
v 5.095 0 2.45
v 5.095 0 8.7
v 5.1049999999999995 2 8.7
v 5.095 2 8.7
v 5.095 2 2.45
v 5.1049999999999995 2 2.45
v 5.1049999999999995 0 8.7
v 5.1049999999999995 2 8.7
v 5.1049999999999995 2 2.45
v 5.1049999999999995 0 2.45
v 5.1049999999999995 0 2.45
v 5.1049999999999995 2 2.45
v 5.095 2 2.45
v 5.095 0 2.45
v 5.095 0 2.45
v 5.095 2 2.45
v 5.095 2 8.7
v 5.095 0 8.7
v 5.095 0 8.7
v 5.095 2 8.7
v 5.1049999999999995 2 8.7
v 5.1049999999999995 0 8.7
v 5.1 0 8.705
v 18.8 0 8.705
v 18.8 0 8.694999999999999
v 5.1 0 8.694999999999999
v 5.1 2 8.705
v 5.1 2 8.694999999999999
v 18.8 2 8.694999999999999
v 18.8 2 8.705
v 5.1 0 8.705
v 5.1 2 8.705
v 18.8 2 8.705
v 18.8 0 8.705
v 18.8 0 8.705
v 18.8 2 8.705
v 18.8 2 8.694999999999999
v 18.8 0 8.694999999999999
v 18.8 0 8.694999999999999
v 18.8 2 8.694999999999999
v 5.1 2 8.694999999999999
v 5.1 0 8.694999999999999
v 5.1 0 8.694999999999999
v 5.1 2 8.694999999999999
v 5.1 2 8.705
v 5.1 0 8.705
v 5.1 0 2.455
v 18.8 0 2.455
v 18.8 0 2.4450000000000003
v 5.1 0 2.4450000000000003
v 5.1 2 2.455
v 5.1 2 2.4450000000000003
v 18.8 2 2.4450000000000003
v 18.8 2 2.455
v 5.1 0 2.455
v 5.1 2 2.455
v 18.8 2 2.455
v 18.8 0 2.455
v 18.8 0 2.455
v 18.8 2 2.455
v 18.8 2 2.4450000000000003
v 18.8 0 2.4450000000000003
v 18.8 0 2.4450000000000003
v 18.8 2 2.4450000000000003
v 5.1 2 2.4450000000000003
v 5.1 0 2.4450000000000003
v 5.1 0 2.4450000000000003
v 5.1 2 2.4450000000000003
v 5.1 2 2.455
v 5.1 0 2.455
v 18.795 0 2.45
v 18.795 0 6.35
v 18.805 0 6.35
v 18.805 0 2.45
v 18.795 2 2.45
v 18.805 2 2.45
v 18.805 2 6.35
v 18.795 2 6.35
v 18.795 0 2.45
v 18.795 2 2.45
v 18.795 2 6.35
v 18.795 0 6.35
v 18.795 0 6.35
v 18.795 2 6.35
v 18.805 2 6.35
v 18.805 0 6.35
v 18.805 0 6.35
v 18.805 2 6.35
v 18.805 2 2.45
v 18.805 0 2.45
v 18.805 0 2.45
v 18.805 2 2.45
v 18.795 2 2.45
v 18.795 0 2.45
v 18.795 0 8.7
v 18.795 0 12.55
v 18.805 0 12.55
v 18.805 0 8.7
v 18.795 2 8.7
v 18.805 2 8.7
v 18.805 2 12.55
v 18.795 2 12.55
v 18.795 0 8.7
v 18.795 2 8.7
v 18.795 2 12.55
v 18.795 0 12.55
v 18.795 0 12.55
v 18.795 2 12.55
v 18.805 2 12.55
v 18.805 0 12.55
v 18.805 0 12.55
v 18.805 2 12.55
v 18.805 2 8.7
v 18.805 0 8.7
v 18.805 0 8.7
v 18.805 2 8.7
v 18.795 2 8.7
v 18.795 0 8.7
v 5.1049999999999995 0 16.15
v 5.1049999999999995 0 8.7
v 5.095 0 8.7
v 5.095 0 16.15
v 5.1049999999999995 2 16.15
v 5.095 2 16.15
v 5.095 2 8.7
v 5.1049999999999995 2 8.7
v 5.1049999999999995 0 16.15
v 5.1049999999999995 2 16.15
v 5.1049999999999995 2 8.7
v 5.1049999999999995 0 8.7
v 5.1049999999999995 0 8.7
v 5.1049999999999995 2 8.7
v 5.095 2 8.7
v 5.095 0 8.7
v 5.095 0 8.7
v 5.095 2 8.7
v 5.095 2 16.15
v 5.095 0 16.15
v 5.095 0 16.15
v 5.095 2 16.15
v 5.1049999999999995 2 16.15
v 5.1049999999999995 0 16.15
v 18.795 0 15.1
v 18.795 0 16.15
v 18.805 0 16.15
v 18.805 0 15.1
v 18.795 2 15.1
v 18.805 2 15.1
v 18.805 2 16.15
v 18.795 2 16.15
v 18.795 0 15.1
v 18.795 2 15.1
v 18.795 2 16.15
v 18.795 0 16.15
v 18.795 0 16.15
v 18.795 2 16.15
v 18.805 2 16.15
v 18.805 0 16.15
v 18.805 0 16.15
v 18.805 2 16.15
v 18.805 2 15.1
v 18.805 0 15.1
v 18.805 0 15.1
v 18.805 2 15.1
v 18.795 2 15.1
v 18.795 0 15.1
v 18.795 0 16.15
v 18.795 0 20.0
v 18.805 0 20.0
v 18.805 0 16.15
v 18.795 2 16.15
v 18.805 2 16.15
v 18.805 2 20.0
v 18.795 2 20.0
v 18.795 0 16.15
v 18.795 2 16.15
v 18.795 2 20.0
v 18.795 0 20.0
v 18.795 0 20.0
v 18.795 2 20.0
v 18.805 2 20.0
v 18.805 0 20.0
v 18.805 0 20.0
v 18.805 2 20.0
v 18.805 2 16.15
v 18.805 0 16.15
v 18.805 0 16.15
v 18.805 2 16.15
v 18.795 2 16.15
v 18.795 0 16.15
v 5.1 0 16.154999999999998
v 18.8 0 16.154999999999998
v 18.8 0 16.145
v 5.1 0 16.145
v 5.1 2 16.154999999999998
v 5.1 2 16.145
v 18.8 2 16.145
v 18.8 2 16.154999999999998
v 5.1 0 16.154999999999998
v 5.1 2 16.154999999999998
v 18.8 2 16.154999999999998
v 18.8 0 16.154999999999998
v 18.8 0 16.154999999999998
v 18.8 2 16.154999999999998
v 18.8 2 16.145
v 18.8 0 16.145
v 18.8 0 16.145
v 18.8 2 16.145
v 5.1 2 16.145
v 5.1 0 16.145
v 5.1 0 16.145
v 5.1 2 16.145
v 5.1 2 16.154999999999998
v 5.1 0 16.154999999999998
v 5.1049999999999995 0 32.45
v 5.1049999999999995 0 25.0
v 5.095 0 25.0
v 5.095 0 32.45
v 5.1049999999999995 2 32.45
v 5.095 2 32.45
v 5.095 2 25.0
v 5.1049999999999995 2 25.0
v 5.1049999999999995 0 32.45
v 5.1049999999999995 2 32.45
v 5.1049999999999995 2 25.0
v 5.1049999999999995 0 25.0
v 5.1049999999999995 0 25.0
v 5.1049999999999995 2 25.0
v 5.095 2 25.0
v 5.095 0 25.0
v 5.095 0 25.0
v 5.095 2 25.0
v 5.095 2 32.45
v 5.095 0 32.45
v 5.095 0 32.45
v 5.095 2 32.45
v 5.1049999999999995 2 32.45
v 5.1049999999999995 0 32.45
v 5.1049999999999995 0 25.0
v 5.1049999999999995 0 16.15
v 5.095 0 16.15
v 5.095 0 25.0
v 5.1049999999999995 2 25.0
v 5.095 2 25.0
v 5.095 2 16.15
v 5.1049999999999995 2 16.15
v 5.1049999999999995 0 25.0
v 5.1049999999999995 2 25.0
v 5.1049999999999995 2 16.15
v 5.1049999999999995 0 16.15
v 5.1049999999999995 0 16.15
v 5.1049999999999995 2 16.15
v 5.095 2 16.15
v 5.095 0 16.15
v 5.095 0 16.15
v 5.095 2 16.15
v 5.095 2 25.0
v 5.095 0 25.0
v 5.095 0 25.0
v 5.095 2 25.0
v 5.1049999999999995 2 25.0
v 5.1049999999999995 0 25.0
v 18.795 0 22.6
v 18.795 0 25.0
v 18.805 0 25.0
v 18.805 0 22.6
v 18.795 2 22.6
v 18.805 2 22.6
v 18.805 2 25.0
v 18.795 2 25.0
v 18.795 0 22.6
v 18.795 2 22.6
v 18.795 2 25.0
v 18.795 0 25.0
v 18.795 0 25.0
v 18.795 2 25.0
v 18.805 2 25.0
v 18.805 0 25.0
v 18.805 0 25.0
v 18.805 2 25.0
v 18.805 2 22.6
v 18.805 0 22.6
v 18.805 0 22.6
v 18.805 2 22.6
v 18.795 2 22.6
v 18.795 0 22.6
v 18.795 0 25.0
v 18.795 0 27.45
v 18.805 0 27.45
v 18.805 0 25.0
v 18.795 2 25.0
v 18.805 2 25.0
v 18.805 2 27.45
v 18.795 2 27.45
v 18.795 0 25.0
v 18.795 2 25.0
v 18.795 2 27.45
v 18.795 0 27.45
v 18.795 0 27.45
v 18.795 2 27.45
v 18.805 2 27.45
v 18.805 0 27.45
v 18.805 0 27.45
v 18.805 2 27.45
v 18.805 2 25.0
v 18.805 0 25.0
v 18.805 0 25.0
v 18.805 2 25.0
v 18.795 2 25.0
v 18.795 0 25.0
v 5.1 0 25.005
v 18.8 0 25.005
v 18.8 0 24.995
v 5.1 0 24.995
v 5.1 2 25.005
v 5.1 2 24.995
v 18.8 2 24.995
v 18.8 2 25.005
v 5.1 0 25.005
v 5.1 2 25.005
v 18.8 2 25.005
v 18.8 0 25.005
v 18.8 0 25.005
v 18.8 2 25.005
v 18.8 2 24.995
v 18.8 0 24.995
v 18.8 0 24.995
v 18.8 2 24.995
v 5.1 2 24.995
v 5.1 0 24.995
v 5.1 0 24.995
v 5.1 2 24.995
v 5.1 2 25.005
v 5.1 0 25.005
v 55.1 0 32.445
v 18.7 0 32.445
v 18.7 0 32.455000000000005
v 55.1 0 32.455000000000005
v 55.1 2 32.445
v 55.1 2 32.455000000000005
v 18.7 2 32.455000000000005
v 18.7 2 32.445
v 55.1 0 32.445
v 55.1 2 32.445
v 18.7 2 32.445
v 18.7 0 32.445
v 18.7 0 32.445
v 18.7 2 32.445
v 18.7 2 32.455000000000005
v 18.7 0 32.455000000000005
v 18.7 0 32.455000000000005
v 18.7 2 32.455000000000005
v 55.1 2 32.455000000000005
v 55.1 0 32.455000000000005
v 55.1 0 32.455000000000005
v 55.1 2 32.455000000000005
v 55.1 2 32.445
v 55.1 0 32.445
v 18.7 0 32.445
v 5.1 0 32.445
v 5.1 0 32.455000000000005
v 18.7 0 32.455000000000005
v 18.7 2 32.445
v 18.7 2 32.455000000000005
v 5.1 2 32.455000000000005
v 5.1 2 32.445
v 18.7 0 32.445
v 18.7 2 32.445
v 5.1 2 32.445
v 5.1 0 32.445
v 5.1 0 32.445
v 5.1 2 32.445
v 5.1 2 32.455000000000005
v 5.1 0 32.455000000000005
v 5.1 0 32.455000000000005
v 5.1 2 32.455000000000005
v 18.7 2 32.455000000000005
v 18.7 0 32.455000000000005
v 18.7 0 32.455000000000005
v 18.7 2 32.455000000000005
v 18.7 2 32.445
v 18.7 0 32.445
v 18.695 0 30.05
v 18.695 0 32.45
v 18.705 0 32.45
v 18.705 0 30.05
v 18.695 2 30.05
v 18.705 2 30.05
v 18.705 2 32.45
v 18.695 2 32.45
v 18.695 0 30.05
v 18.695 2 30.05
v 18.695 2 32.45
v 18.695 0 32.45
v 18.695 0 32.45
v 18.695 2 32.45
v 18.705 2 32.45
v 18.705 0 32.45
v 18.705 0 32.45
v 18.705 2 32.45
v 18.705 2 30.05
v 18.705 0 30.05
v 18.705 0 30.05
v 18.705 2 30.05
v 18.695 2 30.05
v 18.695 0 30.05
v 18.8 0 2.455
v 28.85 0 2.455
v 28.85 0 2.4450000000000003
v 18.8 0 2.4450000000000003
v 18.8 2 2.455
v 18.8 2 2.4450000000000003
v 28.85 2 2.4450000000000003
v 28.85 2 2.455
v 18.8 0 2.455
v 18.8 2 2.455
v 28.85 2 2.455
v 28.85 0 2.455
v 28.85 0 2.455
v 28.85 2 2.455
v 28.85 2 2.4450000000000003
v 28.85 0 2.4450000000000003
v 28.85 0 2.4450000000000003
v 28.85 2 2.4450000000000003
v 18.8 2 2.4450000000000003
v 18.8 0 2.4450000000000003
v 18.8 0 2.4450000000000003
v 18.8 2 2.4450000000000003
v 18.8 2 2.455
v 18.8 0 2.455
v 45.05 0 26.145
v 37.45 0 26.145
v 37.45 0 26.154999999999998
v 45.05 0 26.154999999999998
v 45.05 2 26.145
v 45.05 2 26.154999999999998
v 37.45 2 26.154999999999998
v 37.45 2 26.145
v 45.05 0 26.145
v 45.05 2 26.145
v 37.45 2 26.145
v 37.45 0 26.145
v 37.45 0 26.145
v 37.45 2 26.145
v 37.45 2 26.154999999999998
v 37.45 0 26.154999999999998
v 37.45 0 26.154999999999998
v 37.45 2 26.154999999999998
v 45.05 2 26.154999999999998
v 45.05 0 26.154999999999998
v 45.05 0 26.154999999999998
v 45.05 2 26.154999999999998
v 45.05 2 26.145
v 45.05 0 26.145
v 35.05008063467359 0 26.19500065023734
v 28.850080634673592 0 26.095000650237342
v 28.84991936532641 0 26.10499934976266
v 35.0499193653264 0 26.20499934976266
v 35.05008063467359 2 26.19500065023734
v 35.0499193653264 2 26.20499934976266
v 28.84991936532641 2 26.10499934976266
v 28.850080634673592 2 26.095000650237342
v 35.05008063467359 0 26.19500065023734
v 35.05008063467359 2 26.19500065023734
v 28.850080634673592 2 26.095000650237342
v 28.850080634673592 0 26.095000650237342
v 28.850080634673592 0 26.095000650237342
v 28.850080634673592 2 26.095000650237342
v 28.84991936532641 2 26.10499934976266
v 28.84991936532641 0 26.10499934976266
v 28.84991936532641 0 26.10499934976266
v 28.84991936532641 2 26.10499934976266
v 35.0499193653264 2 26.20499934976266
v 35.0499193653264 0 26.20499934976266
v 35.0499193653264 0 26.20499934976266
v 35.0499193653264 2 26.20499934976266
v 35.05008063467359 2 26.19500065023734
v 35.05008063467359 0 26.19500065023734
v 28.845000000000002 0 2.45
v 28.845000000000002 0 16.45
v 28.855 0 16.45
v 28.855 0 2.45
v 28.845000000000002 2 2.45
v 28.855 2 2.45
v 28.855 2 16.45
v 28.845000000000002 2 16.45
v 28.845000000000002 0 2.45
v 28.845000000000002 2 2.45
v 28.845000000000002 2 16.45
v 28.845000000000002 0 16.45
v 28.845000000000002 0 16.45
v 28.845000000000002 2 16.45
v 28.855 2 16.45
v 28.855 0 16.45
v 28.855 0 16.45
v 28.855 2 16.45
v 28.855 2 2.45
v 28.855 0 2.45
v 28.855 0 2.45
v 28.855 2 2.45
v 28.845000000000002 2 2.45
v 28.845000000000002 0 2.45
v 28.845000000000002 0 16.45
v 28.845000000000002 0 26.1
v 28.855 0 26.1
v 28.855 0 16.45
v 28.845000000000002 2 16.45
v 28.855 2 16.45
v 28.855 2 26.1
v 28.845000000000002 2 26.1
v 28.845000000000002 0 16.45
v 28.845000000000002 2 16.45
v 28.845000000000002 2 26.1
v 28.845000000000002 0 26.1
v 28.845000000000002 0 26.1
v 28.845000000000002 2 26.1
v 28.855 2 26.1
v 28.855 0 26.1
v 28.855 0 26.1
v 28.855 2 26.1
v 28.855 2 16.45
v 28.855 0 16.45
v 28.855 0 16.45
v 28.855 2 16.45
v 28.845000000000002 2 16.45
v 28.845000000000002 0 16.45
v 28.85 0 16.455
v 45.0 0 16.455
v 45.0 0 16.445
v 28.85 0 16.445
v 28.85 2 16.455
v 28.85 2 16.445
v 45.0 2 16.445
v 45.0 2 16.455
v 28.85 0 16.455
v 28.85 2 16.455
v 45.0 2 16.455
v 45.0 0 16.455
v 45.0 0 16.455
v 45.0 2 16.455
v 45.0 2 16.445
v 45.0 0 16.445
v 45.0 0 16.445
v 45.0 2 16.445
v 28.85 2 16.445
v 28.85 0 16.445
v 28.85 0 16.445
v 28.85 2 16.445
v 28.85 2 16.455
v 28.85 0 16.455
v 28.85 0 2.455
v 44.95 0 2.455
v 44.95 0 2.4450000000000003
v 28.85 0 2.4450000000000003
v 28.85 2 2.455
v 28.85 2 2.4450000000000003
v 44.95 2 2.4450000000000003
v 44.95 2 2.455
v 28.85 0 2.455
v 28.85 2 2.455
v 44.95 2 2.455
v 44.95 0 2.455
v 44.95 0 2.455
v 44.95 2 2.455
v 44.95 2 2.4450000000000003
v 44.95 0 2.4450000000000003
v 44.95 0 2.4450000000000003
v 44.95 2 2.4450000000000003
v 28.85 2 2.4450000000000003
v 28.85 0 2.4450000000000003
v 28.85 0 2.4450000000000003
v 28.85 2 2.4450000000000003
v 28.85 2 2.455
v 28.85 0 2.455
v 44.945 0 2.45
v 44.945 0 7.65
v 44.955000000000005 0 7.65
v 44.955000000000005 0 2.45
v 44.945 2 2.45
v 44.955000000000005 2 2.45
v 44.955000000000005 2 7.65
v 44.945 2 7.65
v 44.945 0 2.45
v 44.945 2 2.45
v 44.945 2 7.65
v 44.945 0 7.65
v 44.945 0 7.65
v 44.945 2 7.65
v 44.955000000000005 2 7.65
v 44.955000000000005 0 7.65
v 44.955000000000005 0 7.65
v 44.955000000000005 2 7.65
v 44.955000000000005 2 2.45
v 44.955000000000005 0 2.45
v 44.955000000000005 0 2.45
v 44.955000000000005 2 2.45
v 44.945 2 2.45
v 44.945 0 2.45
v 44.995 0 11.35
v 44.995 0 16.45
v 45.005 0 16.45
v 45.005 0 11.35
v 44.995 2 11.35
v 45.005 2 11.35
v 45.005 2 16.45
v 44.995 2 16.45
v 44.995 0 11.35
v 44.995 2 11.35
v 44.995 2 16.45
v 44.995 0 16.45
v 44.995 0 16.45
v 44.995 2 16.45
v 45.005 2 16.45
v 45.005 0 16.45
v 45.005 0 16.45
v 45.005 2 16.45
v 45.005 2 11.35
v 45.005 0 11.35
v 45.005 0 11.35
v 45.005 2 11.35
v 44.995 2 11.35
v 44.995 0 11.35
v 45.05499993357556 0 26.149974227146515
v 45.00499993357556 0 16.449974227146516
v 44.99500006642444 0 16.450025772853483
v 45.045000066424436 0 26.150025772853482
v 45.05499993357556 2 26.149974227146515
v 45.045000066424436 2 26.150025772853482
v 44.99500006642444 2 16.450025772853483
v 45.00499993357556 2 16.449974227146516
v 45.05499993357556 0 26.149974227146515
v 45.05499993357556 2 26.149974227146515
v 45.00499993357556 2 16.449974227146516
v 45.00499993357556 0 16.449974227146516
v 45.00499993357556 0 16.449974227146516
v 45.00499993357556 2 16.449974227146516
v 44.99500006642444 2 16.450025772853483
v 44.99500006642444 0 16.450025772853483
v 44.99500006642444 0 16.450025772853483
v 44.99500006642444 2 16.450025772853483
v 45.045000066424436 2 26.150025772853482
v 45.045000066424436 0 26.150025772853482
v 45.045000066424436 0 26.150025772853482
v 45.045000066424436 2 26.150025772853482
v 45.05499993357556 2 26.149974227146515
v 45.05499993357556 0 26.149974227146515
v 44.95 0 2.455
v 48.95 0 2.455
v 48.95 0 2.4450000000000003
v 44.95 0 2.4450000000000003
v 44.95 2 2.455
v 44.95 2 2.4450000000000003
v 48.95 2 2.4450000000000003
v 48.95 2 2.455
v 44.95 0 2.455
v 44.95 2 2.455
v 48.95 2 2.455
v 48.95 0 2.455
v 48.95 0 2.455
v 48.95 2 2.455
v 48.95 2 2.4450000000000003
v 48.95 0 2.4450000000000003
v 48.95 0 2.4450000000000003
v 48.95 2 2.4450000000000003
v 44.95 2 2.4450000000000003
v 44.95 0 2.4450000000000003
v 44.95 0 2.4450000000000003
v 44.95 2 2.4450000000000003
v 44.95 2 2.455
v 44.95 0 2.455
v 48.95 0 2.455
v 55.1 0 2.455
v 55.1 0 2.4450000000000003
v 48.95 0 2.4450000000000003
v 48.95 2 2.455
v 48.95 2 2.4450000000000003
v 55.1 2 2.4450000000000003
v 55.1 2 2.455
v 48.95 0 2.455
v 48.95 2 2.455
v 55.1 2 2.455
v 55.1 0 2.455
v 55.1 0 2.455
v 55.1 2 2.455
v 55.1 2 2.4450000000000003
v 55.1 0 2.4450000000000003
v 55.1 0 2.4450000000000003
v 55.1 2 2.4450000000000003
v 48.95 2 2.4450000000000003
v 48.95 0 2.4450000000000003
v 48.95 0 2.4450000000000003
v 48.95 2 2.4450000000000003
v 48.95 2 2.455
v 48.95 0 2.455
v 48.945 0 2.45
v 48.945 0 7.55
v 48.955000000000005 0 7.55
v 48.955000000000005 0 2.45
v 48.945 2 2.45
v 48.955000000000005 2 2.45
v 48.955000000000005 2 7.55
v 48.945 2 7.55
v 48.945 0 2.45
v 48.945 2 2.45
v 48.945 2 7.55
v 48.945 0 7.55
v 48.945 0 7.55
v 48.945 2 7.55
v 48.955000000000005 2 7.55
v 48.955000000000005 0 7.55
v 48.955000000000005 0 7.55
v 48.955000000000005 2 7.55
v 48.955000000000005 2 2.45
v 48.955000000000005 0 2.45
v 48.955000000000005 0 2.45
v 48.955000000000005 2 2.45
v 48.945 2 2.45
v 48.945 0 2.45
v 51.199888916313576 0 7.495001234110842
v 48.949888916313576 0 7.545001234110842
v 48.95011108368643 0 7.554998765889158
v 51.20011108368643 0 7.504998765889158
v 51.199888916313576 2 7.495001234110842
v 51.20011108368643 2 7.504998765889158
v 48.95011108368643 2 7.554998765889158
v 48.949888916313576 2 7.545001234110842
v 51.199888916313576 0 7.495001234110842
v 51.199888916313576 2 7.495001234110842
v 48.949888916313576 2 7.545001234110842
v 48.949888916313576 0 7.545001234110842
v 48.949888916313576 0 7.545001234110842
v 48.949888916313576 2 7.545001234110842
v 48.95011108368643 2 7.554998765889158
v 48.95011108368643 0 7.554998765889158
v 48.95011108368643 0 7.554998765889158
v 48.95011108368643 2 7.554998765889158
v 51.20011108368643 2 7.504998765889158
v 51.20011108368643 0 7.504998765889158
v 51.20011108368643 0 7.504998765889158
v 51.20011108368643 2 7.504998765889158
v 51.199888916313576 2 7.495001234110842
v 51.199888916313576 0 7.495001234110842
v 55.095 0 2.45
v 55.095 0 7.5
v 55.105000000000004 0 7.5
v 55.105000000000004 0 2.45
v 55.095 2 2.45
v 55.105000000000004 2 2.45
v 55.105000000000004 2 7.5
v 55.095 2 7.5
v 55.095 0 2.45
v 55.095 2 2.45
v 55.095 2 7.5
v 55.095 0 7.5
v 55.095 0 7.5
v 55.095 2 7.5
v 55.105000000000004 2 7.5
v 55.105000000000004 0 7.5
v 55.105000000000004 0 7.5
v 55.105000000000004 2 7.5
v 55.105000000000004 2 2.45
v 55.105000000000004 0 2.45
v 55.105000000000004 0 2.45
v 55.105000000000004 2 2.45
v 55.095 2 2.45
v 55.095 0 2.45
v 55.095 0 7.5
v 55.095 0 32.45
v 55.105000000000004 0 32.45
v 55.105000000000004 0 7.5
v 55.095 2 7.5
v 55.105000000000004 2 7.5
v 55.105000000000004 2 32.45
v 55.095 2 32.45
v 55.095 0 7.5
v 55.095 2 7.5
v 55.095 2 32.45
v 55.095 0 32.45
v 55.095 0 32.45
v 55.095 2 32.45
v 55.105000000000004 2 32.45
v 55.105000000000004 0 32.45
v 55.105000000000004 0 32.45
v 55.105000000000004 2 32.45
v 55.105000000000004 2 7.5
v 55.105000000000004 0 7.5
v 55.105000000000004 0 7.5
v 55.105000000000004 2 7.5
v 55.095 2 7.5
v 55.095 0 7.5
v 53.8 0 7.505
v 55.1 0 7.505
v 55.1 0 7.495
v 53.8 0 7.495
v 53.8 2 7.505
v 53.8 2 7.495
v 55.1 2 7.495
v 55.1 2 7.505
v 53.8 0 7.505
v 53.8 2 7.505
v 55.1 2 7.505
v 55.1 0 7.505
v 55.1 0 7.505
v 55.1 2 7.505
v 55.1 2 7.495
v 55.1 0 7.495
v 55.1 0 7.495
v 55.1 2 7.495
v 53.8 2 7.495
v 53.8 0 7.495
v 53.8 0 7.495
v 53.8 2 7.495
v 53.8 2 7.505
v 53.8 0 7.505
v 5.1 0 2.45
v 55.1 0 2.45
v 55.1 0 32.45
v 5.1 0 32.45
vn 0.0 -1.0 -0.0
vn -0.0 -1.0 0.0
vn 0.0 1.0 0.0
vn 0.0 1.0 0.0
vn 1.0 -0.0 0.0
vn 1.0 0.0 0.0
vn 0.0 0.0 -1.0
vn 0.0 0.0 -1.0
vn -1.0 0.0 0.0
vn -1.0 0.0 0.0
vn 0.0 0.0 1.0
vn 0.0 0.0 1.0
vn 0.0 -1.0 0.0
vn 0.0 -1.0 0.0
vn 0.0 1.0 0.0
vn -0.0 1.0 0.0
vn 0.0 0.0 1.0
vn 0.0 0.0 1.0
vn 1.0 -0.0 0.0
vn 1.0 0.0 0.0
vn 0.0 0.0 -1.0
vn 0.0 0.0 -1.0
vn -1.0 0.0 0.0
vn -1.0 0.0 0.0
vn 0.0 -1.0 0.0
vn 0.0 -1.0 0.0
vn 0.0 1.0 0.0
vn -0.0 1.0 0.0
vn 0.0 0.0 1.0
vn 0.0 0.0 1.0
vn 1.0 -0.0 0.0
vn 1.0 0.0 0.0
vn 0.0 0.0 -1.0
vn 0.0 0.0 -1.0
vn -1.0 0.0 0.0
vn -1.0 0.0 0.0
vn 0.0 -1.0 0.0
vn 0.0 -1.0 0.0
vn 0.0 1.0 0.0
vn 0.0 1.0 0.0
vn -1.0 0.0 0.0
vn -1.0 0.0 0.0
vn 0.0 0.0 1.0
vn 0.0 0.0 1.0
vn 1.0 -0.0 0.0
vn 1.0 0.0 0.0
vn 0.0 0.0 -1.0
vn 0.0 0.0 -1.0
vn 0.0 -1.0 0.0
vn 0.0 -1.0 0.0
vn 0.0 1.0 0.0
vn 0.0 1.0 0.0
vn -1.0 0.0 0.0
vn -1.0 0.0 0.0
vn 0.0 0.0 1.0
vn 0.0 0.0 1.0
vn 1.0 -0.0 0.0
vn 1.0 0.0 0.0
vn 0.0 0.0 -1.0
vn 0.0 0.0 -1.0
vn 0.0 -1.0 -0.0
vn -0.0 -1.0 0.0
vn 0.0 1.0 0.0
vn 0.0 1.0 0.0
vn 1.0 -0.0 0.0
vn 1.0 0.0 0.0
vn 0.0 0.0 -1.0
vn 0.0 0.0 -1.0
vn -1.0 0.0 0.0
vn -1.0 0.0 0.0
vn 0.0 0.0 1.0
vn 0.0 0.0 1.0
vn 0.0 -1.0 0.0
vn 0.0 -1.0 0.0
vn 0.0 1.0 0.0
vn 0.0 1.0 0.0
vn -1.0 0.0 0.0
vn -1.0 0.0 0.0
vn 0.0 0.0 1.0
vn 0.0 0.0 1.0
vn 1.0 -0.0 0.0
vn 1.0 0.0 0.0
vn 0.0 0.0 -1.0
vn 0.0 0.0 -1.0
vn 0.0 -1.0 0.0
vn 0.0 -1.0 0.0
vn 0.0 1.0 0.0
vn 0.0 1.0 0.0
vn -1.0 0.0 0.0
vn -1.0 0.0 0.0
vn 0.0 0.0 1.0
vn 0.0 0.0 1.0
vn 1.0 -0.0 0.0
vn 1.0 0.0 0.0
vn 0.0 0.0 -1.0
vn 0.0 0.0 -1.0
vn 0.0 -1.0 0.0
vn 0.0 -1.0 0.0
vn 0.0 1.0 0.0
vn -0.0 1.0 0.0
vn 0.0 0.0 1.0
vn 0.0 0.0 1.0
vn 1.0 -0.0 0.0
vn 1.0 0.0 0.0
vn 0.0 0.0 -1.0
vn 0.0 0.0 -1.0
vn -1.0 0.0 0.0
vn -1.0 0.0 0.0
vn 0.0 -1.0 -0.0
vn -0.0 -1.0 0.0
vn 0.0 1.0 0.0
vn 0.0 1.0 0.0
vn 1.0 -0.0 0.0
vn 1.0 0.0 0.0
vn 0.0 0.0 -1.0
vn 0.0 0.0 -1.0
vn -1.0 0.0 0.0
vn -1.0 0.0 0.0
vn 0.0 0.0 1.0
vn 0.0 0.0 1.0
vn 0.0 -1.0 -0.0
vn -0.0 -1.0 0.0
vn 0.0 1.0 0.0
vn 0.0 1.0 0.0
vn 1.0 -0.0 0.0
vn 1.0 0.0 0.0
vn 0.0 0.0 -1.0
vn 0.0 0.0 -1.0
vn -1.0 0.0 0.0
vn -1.0 0.0 0.0
vn 0.0 0.0 1.0
vn 0.0 0.0 1.0
vn 0.0 -1.0 0.0
vn 0.0 -1.0 0.0
vn 0.0 1.0 0.0
vn 0.0 1.0 0.0
vn -1.0 0.0 0.0
vn -1.0 0.0 0.0
vn 0.0 0.0 1.0
vn 0.0 0.0 1.0
vn 1.0 -0.0 0.0
vn 1.0 0.0 0.0
vn 0.0 0.0 -1.0
vn 0.0 0.0 -1.0
vn 0.0 -1.0 0.0
vn 0.0 -1.0 0.0
vn 0.0 1.0 0.0
vn 0.0 1.0 0.0
vn -1.0 0.0 0.0
vn -1.0 0.0 0.0
vn 0.0 0.0 1.0
vn 0.0 0.0 1.0
vn 1.0 -0.0 0.0
vn 1.0 0.0 0.0
vn 0.0 0.0 -1.0
vn 0.0 0.0 -1.0
vn 0.0 -1.0 0.0
vn 0.0 -1.0 0.0
vn 0.0 1.0 0.0
vn -0.0 1.0 0.0
vn 0.0 0.0 1.0
vn 0.0 0.0 1.0
vn 1.0 -0.0 0.0
vn 1.0 0.0 0.0
vn 0.0 0.0 -1.0
vn 0.0 0.0 -1.0
vn -1.0 0.0 0.0
vn -1.0 0.0 0.0
vn 0.0 -1.0 0.0
vn 0.0 -1.0 0.0
vn 0.0 1.0 -0.0
vn 0.0 1.0 0.0
vn 0.0 0.0 -1.0
vn 0.0 0.0 -1.0
vn -1.0 0.0 0.0
vn -1.0 0.0 0.0
vn 0.0 0.0 1.0
vn 0.0 0.0 1.0
vn 1.0 -0.0 0.0
vn 1.0 0.0 0.0
vn 0.0 -1.0 0.0
vn 0.0 -1.0 0.0
vn 0.0 1.0 -0.0
vn 0.0 1.0 0.0
vn 0.0 0.0 -1.0
vn 0.0 0.0 -1.0
vn -1.0 0.0 0.0
vn -1.0 0.0 0.0
vn 0.0 0.0 1.0
vn 0.0 0.0 1.0
vn 1.0 -0.0 0.0
vn 1.0 0.0 0.0
vn 0.0 -1.0 0.0
vn 0.0 -1.0 0.0
vn 0.0 1.0 0.0
vn 0.0 1.0 0.0
vn -1.0 0.0 0.0
vn -1.0 0.0 0.0
vn 0.0 0.0 1.0
vn 0.0 0.0 1.0
vn 1.0 -0.0 0.0
vn 1.0 0.0 0.0
vn 0.0 0.0 -1.0
vn 0.0 0.0 -1.0
vn 0.0 -1.0 0.0
vn 0.0 -1.0 0.0
vn 0.0 1.0 0.0
vn -0.0 1.0 0.0
vn 0.0 0.0 1.0
vn 0.0 0.0 1.0
vn 1.0 -0.0 0.0
vn 1.0 0.0 0.0
vn 0.0 0.0 -1.0
vn 0.0 0.0 -1.0
vn -1.0 0.0 0.0
vn -1.0 0.0 0.0
vn 0.0 -1.0 0.0
vn 0.0 -1.0 0.0
vn 0.0 1.0 -0.0
vn 0.0 1.0 0.0
vn 0.0 0.0 -1.0
vn 0.0 0.0 -1.0
vn -1.0 0.0 0.0
vn -1.0 0.0 0.0
vn 0.0 0.0 1.0
vn 0.0 0.0 1.0
vn 1.0 -0.0 0.0
vn 1.0 0.0 0.0
vn 0.0 -1.0 0.0
vn -0.0 -1.0 0.0
vn 0.0 1.0 0.0
vn 0.0 1.0 0.0
vn 0.016126934718259732 0.0 -0.9998699525321245
vn 0.016126934718259732 0.0 -0.9998699525321245
vn -0.9998699525321265 0.0 -0.01612693471813404
vn -0.9998699525321265 0.0 -0.01612693471813404
vn -0.01612693471825975 0.0 0.9998699525321245
vn -0.01612693471825975 0.0 0.9998699525321245
vn 0.9998699525321151 -0.0 0.0161269347188444
vn 0.9998699525321151 0.0 0.0161269347188444
vn 0.0 -1.0 0.0
vn 0.0 -1.0 0.0
vn 0.0 1.0 0.0
vn 0.0 1.0 0.0
vn -1.0 0.0 0.0
vn -1.0 0.0 0.0
vn 0.0 0.0 1.0
vn 0.0 0.0 1.0
vn 1.0 -0.0 0.0
vn 1.0 0.0 0.0
vn 0.0 0.0 -1.0
vn 0.0 0.0 -1.0
vn 0.0 -1.0 0.0
vn 0.0 -1.0 0.0
vn 0.0 1.0 0.0
vn 0.0 1.0 0.0
vn -1.0 0.0 0.0
vn -1.0 0.0 0.0
vn 0.0 0.0 1.0
vn 0.0 0.0 1.0
vn 1.0 -0.0 0.0
vn 1.0 0.0 0.0
vn 0.0 0.0 -1.0
vn 0.0 0.0 -1.0
vn 0.0 -1.0 0.0
vn 0.0 -1.0 0.0
vn 0.0 1.0 0.0
vn -0.0 1.0 0.0
vn 0.0 0.0 1.0
vn 0.0 0.0 1.0
vn 1.0 -0.0 0.0
vn 1.0 0.0 0.0
vn 0.0 0.0 -1.0
vn 0.0 0.0 -1.0
vn -1.0 0.0 0.0
vn -1.0 0.0 0.0
vn 0.0 -1.0 0.0
vn 0.0 -1.0 0.0
vn 0.0 1.0 0.0
vn -0.0 1.0 0.0
vn 0.0 0.0 1.0
vn 0.0 0.0 1.0
vn 1.0 -0.0 0.0
vn 1.0 0.0 0.0
vn 0.0 0.0 -1.0
vn 0.0 0.0 -1.0
vn -1.0 0.0 0.0
vn -1.0 0.0 0.0
vn 0.0 -1.0 0.0
vn 0.0 -1.0 0.0
vn 0.0 1.0 0.0
vn 0.0 1.0 0.0
vn -1.0 0.0 0.0
vn -1.0 0.0 0.0
vn 0.0 0.0 1.0
vn 0.0 0.0 1.0
vn 1.0 -0.0 0.0
vn 1.0 0.0 0.0
vn 0.0 0.0 -1.0
vn 0.0 0.0 -1.0
vn 0.0 -1.0 0.0
vn 0.0 -1.0 0.0
vn 0.0 1.0 0.0
vn 0.0 1.0 0.0
vn -1.0 0.0 0.0
vn -1.0 0.0 0.0
vn 0.0 0.0 1.0
vn 0.0 0.0 1.0
vn 1.0 -0.0 0.0
vn 1.0 0.0 0.0
vn 0.0 0.0 -1.0
vn 0.0 0.0 -1.0
vn 0.0 -1.0 0.0
vn -0.0 -1.0 0.0
vn 0.0 1.0 0.0
vn 0.0 1.0 0.0
vn 0.9999867151122236 0.0 -0.005154570696454468
vn 0.9999867151122236 0.0 -0.005154570696454468
vn -0.0051545706966745096 0.0 -0.9999867151122223
vn -0.0051545706966745096 0.0 -0.9999867151122223
vn -0.9999867151122236 0.0 0.005154570696454468
vn -0.9999867151122236 0.0 0.005154570696454468
vn 0.0051545706966745096 -0.0 0.9999867151122223
vn 0.0051545706966745096 0.0 0.9999867151122223
vn 0.0 -1.0 0.0
vn 0.0 -1.0 0.0
vn 0.0 1.0 0.0
vn -0.0 1.0 0.0
vn 0.0 0.0 1.0
vn 0.0 0.0 1.0
vn 1.0 -0.0 0.0
vn 1.0 0.0 0.0
vn 0.0 0.0 -1.0
vn 0.0 0.0 -1.0
vn -1.0 0.0 0.0
vn -1.0 0.0 0.0
vn 0.0 -1.0 0.0
vn 0.0 -1.0 0.0
vn 0.0 1.0 0.0
vn -0.0 1.0 0.0
vn 0.0 0.0 1.0
vn 0.0 0.0 1.0
vn 1.0 -0.0 0.0
vn 1.0 0.0 0.0
vn 0.0 0.0 -1.0
vn 0.0 0.0 -1.0
vn -1.0 0.0 0.0
vn -1.0 0.0 0.0
vn 0.0 -1.0 0.0
vn 0.0 -1.0 0.0
vn 0.0 1.0 0.0
vn 0.0 1.0 0.0
vn -1.0 0.0 0.0
vn -1.0 0.0 0.0
vn 0.0 0.0 1.0
vn 0.0 0.0 1.0
vn 1.0 -0.0 0.0
vn 1.0 0.0 0.0
vn 0.0 0.0 -1.0
vn 0.0 0.0 -1.0
vn 0.0 -1.0 0.0
vn 0.0 -1.0 0.0
vn 0.0 1.0 -0.0
vn 0.0 1.0 0.0
vn -0.02221673728514681 0.0 -0.9997531778316099
vn -0.02221673728514681 0.0 -0.9997531778316099
vn -0.9997531778316039 0.0 0.022216737285419126
vn -0.9997531778316039 0.0 0.022216737285419126
vn 0.02221673728514681 -0.0 0.9997531778316099
vn 0.02221673728514681 0.0 0.9997531778316099
vn 0.9997531778316039 0.0 -0.022216737285419126
vn 0.9997531778316039 0.0 -0.022216737285419126
vn 0.0 -1.0 0.0
vn 0.0 -1.0 0.0
vn 0.0 1.0 0.0
vn 0.0 1.0 0.0
vn -1.0 0.0 0.0
vn -1.0 0.0 0.0
vn 0.0 0.0 1.0
vn 0.0 0.0 1.0
vn 1.0 -0.0 0.0
vn 1.0 0.0 0.0
vn 0.0 0.0 -1.0
vn 0.0 0.0 -1.0
vn 0.0 -1.0 0.0
vn 0.0 -1.0 0.0
vn 0.0 1.0 0.0
vn 0.0 1.0 0.0
vn -1.0 0.0 0.0
vn -1.0 0.0 0.0
vn 0.0 0.0 1.0
vn 0.0 0.0 1.0
vn 1.0 -0.0 0.0
vn 1.0 0.0 0.0
vn 0.0 0.0 -1.0
vn 0.0 0.0 -1.0
vn 0.0 -1.0 0.0
vn 0.0 -1.0 0.0
vn 0.0 1.0 0.0
vn -0.0 1.0 0.0
vn 0.0 0.0 1.0
vn 0.0 0.0 1.0
vn 1.0 -0.0 0.0
vn 1.0 0.0 0.0
vn 0.0 0.0 -1.0
vn 0.0 0.0 -1.0
vn -1.0 0.0 0.0
vn -1.0 0.0 0.0
vn 0.0 1.0 0.0
vn 0.0 1.0 0.0
f 1//1 3//1 2//1
f 1//2 4//2 3//2
f 5//3 7//3 6//3
f 5//4 8//4 7//4
f 9//5 11//5 10//5
f 9//6 12//6 11//6
f 13//7 15//7 14//7
f 13//8 16//8 15//8
f 17//9 19//9 18//9
f 17//10 20//10 19//10
f 21//11 23//11 22//11
f 21//12 24//12 23//12
f 25//13 27//13 26//13
f 25//14 28//14 27//14
f 29//15 31//15 30//15
f 29//16 32//16 31//16
f 33//17 35//17 34//17
f 33//18 36//18 35//18
f 37//19 39//19 38//19
f 37//20 40//20 39//20
f 41//21 43//21 42//21
f 41//22 44//22 43//22
f 45//23 47//23 46//23
f 45//24 48//24 47//24
f 49//25 51//25 50//25
f 49//26 52//26 51//26
f 53//27 55//27 54//27
f 53//28 56//28 55//28
f 57//29 59//29 58//29
f 57//30 60//30 59//30
f 61//31 63//31 62//31
f 61//32 64//32 63//32
f 65//33 67//33 66//33
f 65//34 68//34 67//34
f 69//35 71//35 70//35
f 69//36 72//36 71//36
f 73//37 75//37 74//37
f 73//38 76//38 75//38
f 77//39 79//39 78//39
f 77//40 80//40 79//40
f 81//41 83//41 82//41
f 81//42 84//42 83//42
f 85//43 87//43 86//43
f 85//44 88//44 87//44
f 89//45 91//45 90//45
f 89//46 92//46 91//46
f 93//47 95//47 94//47
f 93//48 96//48 95//48
f 97//49 99//49 98//49
f 97//50 100//50 99//50
f 101//51 103//51 102//51
f 101//52 104//52 103//52
f 105//53 107//53 106//53
f 105//54 108//54 107//54
f 109//55 111//55 110//55
f 109//56 112//56 111//56
f 113//57 115//57 114//57
f 113//58 116//58 115//58
f 117//59 119//59 118//59
f 117//60 120//60 119//60
f 121//61 123//61 122//61
f 121//62 124//62 123//62
f 125//63 127//63 126//63
f 125//64 128//64 127//64
f 129//65 131//65 130//65
f 129//66 132//66 131//66
f 133//67 135//67 134//67
f 133//68 136//68 135//68
f 137//69 139//69 138//69
f 137//70 140//70 139//70
f 141//71 143//71 142//71
f 141//72 144//72 143//72
f 145//73 147//73 146//73
f 145//74 148//74 147//74
f 149//75 151//75 150//75
f 149//76 152//76 151//76
f 153//77 155//77 154//77
f 153//78 156//78 155//78
f 157//79 159//79 158//79
f 157//80 160//80 159//80
f 161//81 163//81 162//81
f 161//82 164//82 163//82
f 165//83 167//83 166//83
f 165//84 168//84 167//84
f 169//85 171//85 170//85
f 169//86 172//86 171//86
f 173//87 175//87 174//87
f 173//88 176//88 175//88
f 177//89 179//89 178//89
f 177//90 180//90 179//90
f 181//91 183//91 182//91
f 181//92 184//92 183//92
f 185//93 187//93 186//93
f 185//94 188//94 187//94
f 189//95 191//95 190//95
f 189//96 192//96 191//96
f 193//97 195//97 194//97
f 193//98 196//98 195//98
f 197//99 199//99 198//99
f 197//100 200//100 199//100
f 201//101 203//101 202//101
f 201//102 204//102 203//102
f 205//103 207//103 206//103
f 205//104 208//104 207//104
f 209//105 211//105 210//105
f 209//106 212//106 211//106
f 213//107 215//107 214//107
f 213//108 216//108 215//108
f 217//109 219//109 218//109
f 217//110 220//110 219//110
f 221//111 223//111 222//111
f 221//112 224//112 223//112
f 225//113 227//113 226//113
f 225//114 228//114 227//114
f 229//115 231//115 230//115
f 229//116 232//116 231//116
f 233//117 235//117 234//117
f 233//118 236//118 235//118
f 237//119 239//119 238//119
f 237//120 240//120 239//120
f 241//121 243//121 242//121
f 241//122 244//122 243//122
f 245//123 247//123 246//123
f 245//124 248//124 247//124
f 249//125 251//125 250//125
f 249//126 252//126 251//126
f 253//127 255//127 254//127
f 253//128 256//128 255//128
f 257//129 259//129 258//129
f 257//130 260//130 259//130
f 261//131 263//131 262//131
f 261//132 264//132 263//132
f 265//133 267//133 266//133
f 265//134 268//134 267//134
f 269//135 271//135 270//135
f 269//136 272//136 271//136
f 273//137 275//137 274//137
f 273//138 276//138 275//138
f 277//139 279//139 278//139
f 277//140 280//140 279//140
f 281//141 283//141 282//141
f 281//142 284//142 283//142
f 285//143 287//143 286//143
f 285//144 288//144 287//144
f 289//145 291//145 290//145
f 289//146 292//146 291//146
f 293//147 295//147 294//147
f 293//148 296//148 295//148
f 297//149 299//149 298//149
f 297//150 300//150 299//150
f 301//151 303//151 302//151
f 301//152 304//152 303//152
f 305//153 307//153 306//153
f 305//154 308//154 307//154
f 309//155 311//155 310//155
f 309//156 312//156 311//156
f 313//157 315//157 314//157
f 313//158 316//158 315//158
f 317//159 319//159 318//159
f 317//160 320//160 319//160
f 321//161 323//161 322//161
f 321//162 324//162 323//162
f 325//163 327//163 326//163
f 325//164 328//164 327//164
f 329//165 331//165 330//165
f 329//166 332//166 331//166
f 333//167 335//167 334//167
f 333//168 336//168 335//168
f 337//169 339//169 338//169
f 337//170 340//170 339//170
f 341//171 343//171 342//171
f 341//172 344//172 343//172
f 345//173 347//173 346//173
f 345//174 348//174 347//174
f 349//175 351//175 350//175
f 349//176 352//176 351//176
f 353//177 355//177 354//177
f 353//178 356//178 355//178
f 357//179 359//179 358//179
f 357//180 360//180 359//180
f 361//181 363//181 362//181
f 361//182 364//182 363//182
f 365//183 367//183 366//183
f 365//184 368//184 367//184
f 369//185 371//185 370//185
f 369//186 372//186 371//186
f 373//187 375//187 374//187
f 373//188 376//188 375//188
f 377//189 379//189 378//189
f 377//190 380//190 379//190
f 381//191 383//191 382//191
f 381//192 384//192 383//192
f 385//193 387//193 386//193
f 385//194 388//194 387//194
f 389//195 391//195 390//195
f 389//196 392//196 391//196
f 393//197 395//197 394//197
f 393//198 396//198 395//198
f 397//199 399//199 398//199
f 397//200 400//200 399//200
f 401//201 403//201 402//201
f 401//202 404//202 403//202
f 405//203 407//203 406//203
f 405//204 408//204 407//204
f 409//205 411//205 410//205
f 409//206 412//206 411//206
f 413//207 415//207 414//207
f 413//208 416//208 415//208
f 417//209 419//209 418//209
f 417//210 420//210 419//210
f 421//211 423//211 422//211
f 421//212 424//212 423//212
f 425//213 427//213 426//213
f 425//214 428//214 427//214
f 429//215 431//215 430//215
f 429//216 432//216 431//216
f 433//217 435//217 434//217
f 433//218 436//218 435//218
f 437//219 439//219 438//219
f 437//220 440//220 439//220
f 441//221 443//221 442//221
f 441//222 444//222 443//222
f 445//223 447//223 446//223
f 445//224 448//224 447//224
f 449//225 451//225 450//225
f 449//226 452//226 451//226
f 453//227 455//227 454//227
f 453//228 456//228 455//228
f 457//229 459//229 458//229
f 457//230 460//230 459//230
f 461//231 463//231 462//231
f 461//232 464//232 463//232
f 465//233 467//233 466//233
f 465//234 468//234 467//234
f 469//235 471//235 470//235
f 469//236 472//236 471//236
f 473//237 475//237 474//237
f 473//238 476//238 475//238
f 477//239 479//239 478//239
f 477//240 480//240 479//240
f 481//241 483//241 482//241
f 481//242 484//242 483//242
f 485//243 487//243 486//243
f 485//244 488//244 487//244
f 489//245 491//245 490//245
f 489//246 492//246 491//246
f 493//247 495//247 494//247
f 493//248 496//248 495//248
f 497//249 499//249 498//249
f 497//250 500//250 499//250
f 501//251 503//251 502//251
f 501//252 504//252 503//252
f 505//253 507//253 506//253
f 505//254 508//254 507//254
f 509//255 511//255 510//255
f 509//256 512//256 511//256
f 513//257 515//257 514//257
f 513//258 516//258 515//258
f 517//259 519//259 518//259
f 517//260 520//260 519//260
f 521//261 523//261 522//261
f 521//262 524//262 523//262
f 525//263 527//263 526//263
f 525//264 528//264 527//264
f 529//265 531//265 530//265
f 529//266 532//266 531//266
f 533//267 535//267 534//267
f 533//268 536//268 535//268
f 537//269 539//269 538//269
f 537//270 540//270 539//270
f 541//271 543//271 542//271
f 541//272 544//272 543//272
f 545//273 547//273 546//273
f 545//274 548//274 547//274
f 549//275 551//275 550//275
f 549//276 552//276 551//276
f 553//277 555//277 554//277
f 553//278 556//278 555//278
f 557//279 559//279 558//279
f 557//280 560//280 559//280
f 561//281 563//281 562//281
f 561//282 564//282 563//282
f 565//283 567//283 566//283
f 565//284 568//284 567//284
f 569//285 571//285 570//285
f 569//286 572//286 571//286
f 573//287 575//287 574//287
f 573//288 576//288 575//288
f 577//289 579//289 578//289
f 577//290 580//290 579//290
f 581//291 583//291 582//291
f 581//292 584//292 583//292
f 585//293 587//293 586//293
f 585//294 588//294 587//294
f 589//295 591//295 590//295
f 589//296 592//296 591//296
f 593//297 595//297 594//297
f 593//298 596//298 595//298
f 597//299 599//299 598//299
f 597//300 600//300 599//300
f 601//301 603//301 602//301
f 601//302 604//302 603//302
f 605//303 607//303 606//303
f 605//304 608//304 607//304
f 609//305 611//305 610//305
f 609//306 612//306 611//306
f 613//307 615//307 614//307
f 613//308 616//308 615//308
f 617//309 619//309 618//309
f 617//310 620//310 619//310
f 621//311 623//311 622//311
f 621//312 624//312 623//312
f 625//313 627//313 626//313
f 625//314 628//314 627//314
f 629//315 631//315 630//315
f 629//316 632//316 631//316
f 633//317 635//317 634//317
f 633//318 636//318 635//318
f 637//319 639//319 638//319
f 637//320 640//320 639//320
f 641//321 643//321 642//321
f 641//322 644//322 643//322
f 645//323 647//323 646//323
f 645//324 648//324 647//324
f 649//325 651//325 650//325
f 649//326 652//326 651//326
f 653//327 655//327 654//327
f 653//328 656//328 655//328
f 657//329 659//329 658//329
f 657//330 660//330 659//330
f 661//331 663//331 662//331
f 661//332 664//332 663//332
f 665//333 667//333 666//333
f 665//334 668//334 667//334
f 669//335 671//335 670//335
f 669//336 672//336 671//336
f 673//337 675//337 674//337
f 673//338 676//338 675//338
f 677//339 679//339 678//339
f 677//340 680//340 679//340
f 681//341 683//341 682//341
f 681//342 684//342 683//342
f 685//343 687//343 686//343
f 685//344 688//344 687//344
f 689//345 691//345 690//345
f 689//346 692//346 691//346
f 693//347 695//347 694//347
f 693//348 696//348 695//348
f 697//349 699//349 698//349
f 697//350 700//350 699//350
f 701//351 703//351 702//351
f 701//352 704//352 703//352
f 705//353 707//353 706//353
f 705//354 708//354 707//354
f 709//355 711//355 710//355
f 709//356 712//356 711//356
f 713//357 715//357 714//357
f 713//358 716//358 715//358
f 717//359 719//359 718//359
f 717//360 720//360 719//360
f 721//361 723//361 722//361
f 721//362 724//362 723//362
f 725//363 727//363 726//363
f 725//364 728//364 727//364
f 729//365 731//365 730//365
f 729//366 732//366 731//366
f 733//367 735//367 734//367
f 733//368 736//368 735//368
f 737//369 739//369 738//369
f 737//370 740//370 739//370
f 741//371 743//371 742//371
f 741//372 744//372 743//372
f 745//373 747//373 746//373
f 745//374 748//374 747//374
f 749//375 751//375 750//375
f 749//376 752//376 751//376
f 753//377 755//377 754//377
f 753//378 756//378 755//378
f 757//379 759//379 758//379
f 757//380 760//380 759//380
f 761//381 763//381 762//381
f 761//382 764//382 763//382
f 765//383 767//383 766//383
f 765//384 768//384 767//384
f 769//385 771//385 770//385
f 769//386 772//386 771//386
f 773//387 775//387 774//387
f 773//388 776//388 775//388
f 777//389 779//389 778//389
f 777//390 780//390 779//390
f 781//391 783//391 782//391
f 781//392 784//392 783//392
f 785//393 787//393 786//393
f 785//394 788//394 787//394
f 789//395 791//395 790//395
f 789//396 792//396 791//396
f 793//397 795//397 794//397
f 793//398 796//398 795//398
f 797//399 799//399 798//399
f 797//400 800//400 799//400
f 801//401 803//401 802//401
f 801//402 804//402 803//402
f 805//403 807//403 806//403
f 805//404 808//404 807//404
f 809//405 811//405 810//405
f 809//406 812//406 811//406
f 813//407 815//407 814//407
f 813//408 816//408 815//408
f 817//409 819//409 818//409
f 817//410 820//410 819//410
