# Blender 3.6.20
# www.blender.org
mtllib robot.mtl
o Robot
v -0.202113 0.200159 0.000000
v -0.141160 0.139207 0.808069
v 0.198205 0.200159 0.000000
v 0.137253 0.026010 0.838300
v -0.202113 -0.200159 0.000000
v -0.141160 -0.139207 0.808069
v 0.198205 -0.200159 0.000000
v 0.137253 -0.026010 0.838300
v -0.094474 -0.237520 0.071080
v -0.097633 -0.200159 0.071080
v -0.087432 -0.237520 0.106486
v -0.090350 -0.200159 0.107695
v -0.067376 -0.237520 0.136502
v -0.069609 -0.200159 0.138736
v -0.037360 -0.237520 0.156558
v -0.038569 -0.200159 0.159476
v -0.001954 -0.237520 0.163601
v -0.001954 -0.200159 0.166759
v 0.033452 -0.237520 0.156558
v 0.034661 -0.200159 0.159476
v 0.063468 -0.237520 0.136502
v 0.065701 -0.200159 0.138736
v 0.083524 -0.237520 0.106486
v 0.086442 -0.200159 0.107695
v 0.090567 -0.237520 0.071080
v 0.093725 -0.200159 0.071080
v 0.083524 -0.237520 0.035674
v 0.086442 -0.200159 0.034466
v 0.063468 -0.237520 0.005659
v 0.065701 -0.200159 0.003425
v 0.033452 -0.237520 -0.014397
v 0.034661 -0.200159 -0.017316
v -0.001954 -0.237520 -0.021440
v -0.001954 -0.200159 -0.024599
v -0.037360 -0.237520 -0.014397
v -0.038569 -0.200159 -0.017316
v -0.067376 -0.237520 0.005659
v -0.069609 -0.200159 0.003425
v -0.087432 -0.237520 0.035674
v -0.090350 -0.200159 0.034466
v -0.097633 0.200159 0.071080
v -0.094474 0.237520 0.071080
v -0.090350 0.200159 0.107695
v -0.087432 0.237520 0.106486
v -0.069609 0.200159 0.138736
v -0.067376 0.237520 0.136502
v -0.038569 0.200159 0.159476
v -0.037360 0.237520 0.156558
v -0.001954 0.200159 0.166759
v -0.001954 0.237520 0.163601
v 0.034661 0.200159 0.159476
v 0.033452 0.237520 0.156558
v 0.065701 0.200159 0.138736
v 0.063468 0.237520 0.136502
v 0.086442 0.200159 0.107695
v 0.083524 0.237520 0.106486
v 0.093725 0.200159 0.071080
v 0.090567 0.237520 0.071080
v 0.086442 0.200159 0.034466
v 0.083524 0.237520 0.035674
v 0.065701 0.200159 0.003425
v 0.063468 0.237520 0.005659
v 0.034661 0.200159 -0.017316
v 0.033452 0.237520 -0.014397
v -0.001954 0.200159 -0.024599
v -0.001954 0.237520 -0.021440
v -0.038569 0.200159 -0.017316
v -0.037360 0.237520 -0.014397
v -0.069609 0.200159 0.003425
v -0.067376 0.237520 0.005659
v -0.090350 0.200159 0.034466
v -0.087432 0.237520 0.035674
v -0.202113 0.200159 0.808069
v 0.198205 0.200159 0.808069
v 0.198205 -0.200159 0.808069
v -0.202113 -0.200159 0.808069
v -0.141160 0.139207 0.915014
v 0.137253 0.026010 0.884783
v 0.137253 -0.026010 0.884783
v -0.141160 -0.139207 0.915014
v 0.137253 0.139207 0.808069
v 0.137253 -0.139207 0.808069
v 0.137253 0.139207 0.915014
v 0.137253 -0.139207 0.915014
v 0.122334 0.026010 0.838300
v 0.122334 -0.026010 0.838300
v 0.122334 0.026010 0.884783
v 0.122334 -0.026010 0.884783
vn -0.0000 1.0000 -0.0000
vn 1.0000 -0.0000 -0.0000
vn -0.0000 -1.0000 -0.0000
vn -1.0000 -0.0000 -0.0000
vn -0.0000 -0.0000 -1.0000
vn -0.9774 -0.0826 0.1944
vn -0.8286 -0.0826 0.5537
vn -0.5537 -0.0826 0.8286
vn -0.1944 -0.0826 0.9774
vn 0.1944 -0.0826 0.9774
vn 0.5537 -0.0826 0.8286
vn 0.8286 -0.0826 0.5537
vn 0.9774 -0.0826 0.1944
vn 0.9774 -0.0826 -0.1944
vn 0.8286 -0.0826 -0.5537
vn 0.5537 -0.0826 -0.8286
vn 0.1944 -0.0826 -0.9774
vn -0.1944 -0.0826 -0.9774
vn -0.5537 -0.0826 -0.8286
vn -0.8286 -0.0826 -0.5537
vn -0.9774 -0.0826 -0.1944
vn -0.9774 0.0826 0.1944
vn -0.8286 0.0826 0.5537
vn -0.5537 0.0826 0.8286
vn -0.1944 0.0826 0.9774
vn 0.1944 0.0826 0.9774
vn 0.5537 0.0826 0.8286
vn 0.8286 0.0826 0.5537
vn 0.9774 0.0826 0.1944
vn 0.9774 0.0826 -0.1944
vn 0.8286 0.0826 -0.5537
vn 0.5537 0.0826 -0.8286
vn 0.1944 0.0826 -0.9774
vn -0.1944 0.0826 -0.9774
vn -0.5537 0.0826 -0.8286
vn -0.8286 0.0826 -0.5537
vn -0.9774 0.0826 -0.1944
vn -0.0000 -0.0000 1.0000
vt 0.375000 0.000000
vt 0.625000 0.000000
vt 0.625000 0.250000
vt 0.375000 0.250000
vt 0.625000 0.500000
vt 0.375000 0.500000
vt 0.625000 0.750000
vt 0.375000 0.750000
vt 0.625000 1.000000
vt 0.375000 1.000000
vt 0.125000 0.500000
vt 0.125000 0.750000
vt 0.836935 0.711935
vt 0.663065 0.711935
vt 1.000000 0.500000
vt 0.937500 0.500000
vt 0.937500 1.000000
vt 1.000000 1.000000
vt 0.875000 0.500000
vt 0.875000 1.000000
vt 0.812500 0.500000
vt 0.812500 1.000000
vt 0.750000 0.500000
vt 0.750000 1.000000
vt 0.687500 0.500000
vt 0.687500 1.000000
vt 0.562500 0.500000
vt 0.562500 1.000000
vt 0.500000 0.500000
vt 0.500000 1.000000
vt 0.437500 0.500000
vt 0.437500 1.000000
vt 0.312500 0.500000
vt 0.312500 1.000000
vt 0.250000 0.500000
vt 0.250000 1.000000
vt 0.187500 0.500000
vt 0.187500 1.000000
vt 0.125000 1.000000
vt 0.341844 0.471731
vt 0.419706 0.419706
vt 0.471731 0.341844
vt 0.490000 0.250000
vt 0.471731 0.158156
vt 0.419706 0.080294
vt 0.341844 0.028269
vt 0.250000 0.010000
vt 0.158156 0.028269
vt 0.080294 0.080294
vt 0.028269 0.158156
vt 0.010000 0.250000
vt 0.028269 0.341844
vt 0.080294 0.419706
vt 0.158156 0.471731
vt 0.250000 0.490000
vt 0.062500 0.500000
vt 0.062500 1.000000
vt 0.000000 0.500000
vt 0.000000 1.000000
vt 0.750000 0.490000
vt 0.658156 0.471731
vt 0.580294 0.419706
vt 0.528269 0.341844
vt 0.510000 0.250000
vt 0.528269 0.158156
vt 0.580294 0.080294
vt 0.658156 0.028269
vt 0.750000 0.010000
vt 0.841844 0.028269
vt 0.919706 0.080294
vt 0.971731 0.158156
vt 0.990000 0.250000
vt 0.971731 0.341844
vt 0.919706 0.419706
vt 0.841844 0.471731
vt 0.836935 0.538065
vt 0.875000 0.750000
vt 0.663065 0.538065
vt 0.677019 0.538065
vt 0.822981 0.538065
vt 0.822981 0.538065
s 0
usemtl Material.001
f 1/1/1 73/2/1 74/3/1 3/4/1
f 3/4/2 74/3/2 75/5/2 7/6/2
f 7/6/3 75/5/3 76/7/3 5/8/3
f 5/8/4 76/7/4 73/9/4 1/10/4
f 3/11/5 7/6/5 5/8/5 1/12/5
f 2/13/38 81/76/38 74/19/38 73/77/38
f 81/76/38 82/78/38 75/5/38 74/19/38
f 82/78/38 6/14/38 76/7/38 75/5/38
f 6/14/38 2/13/38 73/77/38 76/7/38
f 79/79/1 8/79/1 86/79/1 88/79/1
f 86/79/2 85/80/2 87/81/2 88/79/2
f 78/81/5 79/79/5 88/79/5 87/81/5
f 4/80/3 78/81/3 87/81/3 85/80/3
f 8/79/38 4/80/38 85/80/38 86/79/38
usemtl Material.002
f 2/13/4 6/14/4 80/14/4 77/13/4
f 9/15/6 11/16/6 12/17/6 10/18/6
f 11/16/7 13/19/7 14/20/7 12/17/7
f 13/19/8 15/21/8 16/22/8 14/20/8
f 15/21/9 17/23/9 18/24/9 16/22/9
f 17/23/10 19/25/10 20/26/10 18/24/10
f 19/25/11 21/5/11 22/9/11 20/26/11
f 21/5/12 23/27/12 24/28/12 22/9/12
f 23/27/13 25/29/13 26/30/13 24/28/13
f 25/29/14 27/31/14 28/32/14 26/30/14
f 27/31/15 29/6/15 30/10/15 28/32/15
f 29/6/16 31/33/16 32/34/16 30/10/16
f 31/33/17 33/35/17 34/36/17 32/34/17
f 33/35/18 35/37/18 36/38/18 34/36/18
f 35/37/19 37/11/19 38/39/19 36/38/19
f 12/40/1 14/41/1 16/42/1 18/43/1 20/44/1 22/45/1 24/46/1 26/47/1 28/48/1 30/49/1 32/50/1 34/51/1 36/52/1 38/53/1 40/54/1 10/55/1
f 37/11/20 39/56/20 40/57/20 38/39/20
f 39/56/21 9/58/21 10/59/21 40/57/21
f 9/60/3 39/61/3 37/62/3 35/63/3 33/64/3 31/65/3 29/66/3 27/67/3 25/68/3 23/69/3 21/70/3 19/71/3 17/72/3 15/73/3 13/74/3 11/75/3
f 41/15/22 43/16/22 44/17/22 42/18/22
f 43/16/23 45/19/23 46/20/23 44/17/23
f 45/19/24 47/21/24 48/22/24 46/20/24
f 47/21/25 49/23/25 50/24/25 48/22/25
f 49/23/26 51/25/26 52/26/26 50/24/26
f 51/25/27 53/5/27 54/9/27 52/26/27
f 53/5/28 55/27/28 56/28/28 54/9/28
f 55/27/29 57/29/29 58/30/29 56/28/29
f 57/29/30 59/31/30 60/32/30 58/30/30
f 59/31/31 61/6/31 62/10/31 60/32/31
f 61/6/32 63/33/32 64/34/32 62/10/32
f 63/33/33 65/35/33 66/36/33 64/34/33
f 65/35/34 67/37/34 68/38/34 66/36/34
f 67/37/35 69/11/35 70/39/35 68/38/35
f 44/40/1 46/41/1 48/42/1 50/43/1 52/44/1 54/45/1 56/46/1 58/47/1 60/48/1 62/49/1 64/50/1 66/51/1 68/52/1 70/53/1 72/54/1 42/55/1
f 69/11/36 71/56/36 72/57/36 70/39/36
f 71/56/37 41/58/37 42/59/37 72/57/37
f 41/60/3 71/61/3 69/62/3 67/63/3 65/64/3 63/65/3 61/66/3 59/67/3 57/68/3 55/69/3 53/70/3 51/71/3 49/72/3 47/73/3 45/74/3 43/75/3
f 84/78/38 83/76/38 77/13/38 80/14/38
f 6/14/3 82/78/3 84/78/3 80/14/3
f 81/76/1 2/13/1 77/13/1 83/76/1
f 4/80/2 8/79/2 82/78/2 81/76/2
f 79/79/2 78/81/2 83/76/2 84/78/2
f 78/81/2 4/80/2 81/76/2 83/76/2
f 8/79/2 79/79/2 84/78/2 82/78/2
